<?xml version="1.0" encoding="UTF-8"?>
<svg xmlns="http://www.w3.org/2000/svg" width="1600" height="900" viewBox="0 0 1600 900" fill="none"><defs><filter id="node-shadow" x="-25%" y="-30%" width="150%" height="170%"><feDropShadow dx="0" dy="18" stdDeviation="18" flood-color="#020617" flood-opacity="0.30"></feDropShadow></filter><filter id="hub-shadow" x="-40%" y="-40%" width="180%" height="180%"><feDropShadow dx="0" dy="18" stdDeviation="26" flood-color="#020617" flood-opacity="0.32"></feDropShadow></filter><radialGradient id="hub-halo" cx="50%" cy="50%" r="50%"><stop offset="0%" stop-color="#10b981" stop-opacity="0.26"></stop><stop offset="68%" stop-color="#10b981" stop-opacity="0.10"></stop><stop offset="100%" stop-color="#10b981" stop-opacity="0"></stop></radialGradient><pattern id="canvas-dots" x="0" y="0" width="20" height="20" patternUnits="userSpaceOnUse"><circle cx="1" cy="1" r="1" fill="#1e2d3d" opacity="0.9"></circle></pattern></defs><circle cx="800" cy="450" r="150" fill="url(#hub-halo)"></circle><g><path d="M 470 230 C 580 230 657.9590711548913 395.6393807699275 718.4590711548913 395.6393807699275" stroke="#1e2d3d" stroke-width="4" stroke-linecap="round" opacity="0.95"></path><path d="M 470 230 C 580 230 657.9590711548913 395.6393807699275 718.4590711548913 395.6393807699275" stroke="#34d399" stroke-width="1.5" stroke-linecap="round" opacity="0.18"></path><g filter="url(#node-shadow)"><rect x="110" y="158" width="360" height="144" rx="22" fill="#131b24" stroke="#1e2d3d" stroke-width="2"></rect><rect x="130" y="178" width="56" height="56" rx="14" fill="rgba(56, 189, 248, 0.16)"></rect><svg xmlns="http://www.w3.org/2000/svg" width="32" height="32" viewBox="0 0 24 24" fill="none" stroke="#38bdf8" stroke-width="2.1" stroke-linecap="round" stroke-linejoin="round" class="lucide lucide-globe" aria-hidden="true" x="142" y="190"><circle cx="12" cy="12" r="10"></circle><path d="M12 2a14.5 14.5 0 0 0 0 20 14.5 14.5 0 0 0 0-20"></path><path d="M2 12h20"></path></svg><text x="214" y="218" fill="#e6edf3" font-family="Inter, system-ui, sans-serif" font-size="24" font-weight="600"><tspan x="214" dy="0">Connect APIs</tspan></text><text x="136" y="264" fill="#8b949e" font-family="Inter, system-ui, sans-serif" font-size="18" font-weight="500"><tspan x="136" dy="0">HTTP, webhooks, and services</tspan></text></g><g><circle cx="470" cy="230" r="7" fill="#1a2332" stroke="#34d399" stroke-width="2.5"></circle><circle cx="470" cy="230" r="2.5" fill="#34d399"></circle></g></g><g><path d="M 470 450 C 580 450 641.5 450 702 450" stroke="#1e2d3d" stroke-width="4" stroke-linecap="round" opacity="0.95"></path><path d="M 470 450 C 580 450 641.5 450 702 450" stroke="#34d399" stroke-width="1.5" stroke-linecap="round" opacity="0.18"></path><g filter="url(#node-shadow)"><rect x="110" y="378" width="360" height="144" rx="22" fill="#131b24" stroke="#1e2d3d" stroke-width="2"></rect><rect x="130" y="398" width="56" height="56" rx="14" fill="rgba(56, 189, 248, 0.16)"></rect><svg xmlns="http://www.w3.org/2000/svg" width="32" height="32" viewBox="0 0 24 24" fill="none" stroke="#38bdf8" stroke-width="2.1" stroke-linecap="round" stroke-linejoin="round" class="lucide lucide-code" aria-hidden="true" x="142" y="410"><path d="m16 18 6-6-6-6"></path><path d="m8 6-6 6 6 6"></path></svg><text x="214" y="438" fill="#e6edf3" font-family="Inter, system-ui, sans-serif" font-size="24" font-weight="600"><tspan x="214" dy="0">Run commands</tspan></text><text x="136" y="484" fill="#8b949e" font-family="Inter, system-ui, sans-serif" font-size="18" font-weight="500"><tspan x="136" dy="0">Scripts and background jobs</tspan></text></g><g><circle cx="470" cy="450" r="7" fill="#1a2332" stroke="#34d399" stroke-width="2.5"></circle><circle cx="470" cy="450" r="2.5" fill="#34d399"></circle></g></g><g><path d="M 470 670 C 580 670 657.9590711548913 504.3606192300725 718.4590711548913 504.3606192300725" stroke="#1e2d3d" stroke-width="4" stroke-linecap="round" opacity="0.95"></path><path d="M 470 670 C 580 670 657.9590711548913 504.3606192300725 718.4590711548913 504.3606192300725" stroke="#34d399" stroke-width="1.5" stroke-linecap="round" opacity="0.18"></path><g filter="url(#node-shadow)"><rect x="110" y="598" width="360" height="144" rx="22" fill="#131b24" stroke="#1e2d3d" stroke-width="2"></rect><rect x="130" y="618" width="56" height="56" rx="14" fill="rgba(16, 185, 129, 0.16)"></rect><svg xmlns="http://www.w3.org/2000/svg" width="32" height="32" viewBox="0 0 24 24" fill="none" stroke="#10b981" stroke-width="2.1" stroke-linecap="round" stroke-linejoin="round" class="lucide lucide-workflow" aria-hidden="true" x="142" y="630"><rect width="8" height="8" x="3" y="3" rx="2"></rect><path d="M7 11v4a2 2 0 0 0 2 2h4"></path><rect width="8" height="8" x="13" y="13" rx="2"></rect></svg><text x="214" y="658" fill="#e6edf3" font-family="Inter, system-ui, sans-serif" font-size="24" font-weight="600"><tspan x="214" dy="0">Reuse flows</tspan></text><text x="136" y="704" fill="#8b949e" font-family="Inter, system-ui, sans-serif" font-size="18" font-weight="500"><tspan x="136" dy="0">Templates and schedules</tspan></text></g><g><circle cx="470" cy="670" r="7" fill="#1a2332" stroke="#34d399" stroke-width="2.5"></circle><circle cx="470" cy="670" r="2.5" fill="#34d399"></circle></g></g><g><path d="M 1130 230 C 1020 230 942.0409288451087 395.6393807699275 881.5409288451087 395.6393807699275" stroke="#1e2d3d" stroke-width="4" stroke-linecap="round" opacity="0.95"></path><path d="M 1130 230 C 1020 230 942.0409288451087 395.6393807699275 881.5409288451087 395.6393807699275" stroke="#34d399" stroke-width="1.5" stroke-linecap="round" opacity="0.18"></path><g filter="url(#node-shadow)"><rect x="1130" y="158" width="360" height="144" rx="22" fill="#131b24" stroke="#1e2d3d" stroke-width="2"></rect><rect x="1150" y="178" width="56" height="56" rx="14" fill="rgba(236, 72, 153, 0.16)"></rect><svg xmlns="http://www.w3.org/2000/svg" width="32" height="32" viewBox="0 0 24 24" fill="none" stroke="#ec4899" stroke-width="2.1" stroke-linecap="round" stroke-linejoin="round" class="lucide lucide-bot" aria-hidden="true" x="1162" y="190"><path d="M12 8V4H8"></path><rect width="16" height="12" x="4" y="8" rx="2"></rect><path d="M2 14h2"></path><path d="M20 14h2"></path><path d="M15 13v2"></path><path d="M9 13v2"></path></svg><text x="1234" y="218" fill="#e6edf3" font-family="Inter, system-ui, sans-serif" font-size="24" font-weight="600"><tspan x="1234" dy="0">AI with tools</tspan></text><text x="1156" y="264" fill="#8b949e" font-family="Inter, system-ui, sans-serif" font-size="18" font-weight="500"><tspan x="1156" dy="0">Reasoning with connected tools</tspan></text></g><g><circle cx="1130" cy="230" r="7" fill="#1a2332" stroke="#34d399" stroke-width="2.5"></circle><circle cx="1130" cy="230" r="2.5" fill="#34d399"></circle></g></g><g><path d="M 1130 450 C 1020 450 958.5 450 898 450" stroke="#1e2d3d" stroke-width="4" stroke-linecap="round" opacity="0.95"></path><path d="M 1130 450 C 1020 450 958.5 450 898 450" stroke="#34d399" stroke-width="1.5" stroke-linecap="round" opacity="0.18"></path><g filter="url(#node-shadow)"><rect x="1130" y="378" width="360" height="144" rx="22" fill="#131b24" stroke="#1e2d3d" stroke-width="2"></rect><rect x="1150" y="398" width="56" height="56" rx="14" fill="rgba(16, 185, 129, 0.16)"></rect><svg xmlns="http://www.w3.org/2000/svg" width="32" height="32" viewBox="0 0 24 24" fill="none" stroke="#10b981" stroke-width="2.1" stroke-linecap="round" stroke-linejoin="round" class="lucide lucide-message-square" aria-hidden="true" x="1162" y="410"><path d="M22 17a2 2 0 0 1-2 2H6.828a2 2 0 0 0-1.414.586l-2.202 2.202A.71.71 0 0 1 2 21.286V5a2 2 0 0 1 2-2h16a2 2 0 0 1 2 2z"></path></svg><text x="1234" y="438" fill="#e6edf3" font-family="Inter, system-ui, sans-serif" font-size="24" font-weight="600"><tspan x="1234" dy="0">Human loop</tspan></text><text x="1156" y="484" fill="#8b949e" font-family="Inter, system-ui, sans-serif" font-size="18" font-weight="500"><tspan x="1156" dy="0">Ask, approve, and resume</tspan></text></g><g><circle cx="1130" cy="450" r="7" fill="#1a2332" stroke="#34d399" stroke-width="2.5"></circle><circle cx="1130" cy="450" r="2.5" fill="#34d399"></circle></g></g><g><path d="M 1130 670 C 1020 670 942.0409288451087 504.3606192300725 881.5409288451087 504.3606192300725" stroke="#1e2d3d" stroke-width="4" stroke-linecap="round" opacity="0.95"></path><path d="M 1130 670 C 1020 670 942.0409288451087 504.3606192300725 881.5409288451087 504.3606192300725" stroke="#34d399" stroke-width="1.5" stroke-linecap="round" opacity="0.18"></path><g filter="url(#node-shadow)"><rect x="1130" y="598" width="360" height="144" rx="22" fill="#131b24" stroke="#1e2d3d" stroke-width="2"></rect><rect x="1150" y="618" width="56" height="56" rx="14" fill="rgba(139, 92, 246, 0.16)"></rect><svg xmlns="http://www.w3.org/2000/svg" width="32" height="32" viewBox="0 0 24 24" fill="none" stroke="#8b5cf6" stroke-width="2.1" stroke-linecap="round" stroke-linejoin="round" class="lucide lucide-shield" aria-hidden="true" x="1162" y="630"><path d="M20 13c0 5-3.5 7.5-7.66 8.95a1 1 0 0 1-.67-.01C7.5 20.5 4 18 4 13V6a1 1 0 0 1 1-1c2 0 4.5-1.2 6.24-2.72a1.17 1.17 0 0 1 1.52 0C14.51 3.81 17 5 19 5a1 1 0 0 1 1 1z"></path></svg><text x="1234" y="658" fill="#e6edf3" font-family="Inter, system-ui, sans-serif" font-size="24" font-weight="600"><tspan x="1234" dy="0">Ready for ops</tspan></text><text x="1156" y="704" fill="#8b949e" font-family="Inter, system-ui, sans-serif" font-size="18" font-weight="500"><tspan x="1156" dy="0">Logs, retries, visibility</tspan></text></g><g><circle cx="1130" cy="670" r="7" fill="#1a2332" stroke="#34d399" stroke-width="2.5"></circle><circle cx="1130" cy="670" r="2.5" fill="#34d399"></circle></g></g><g filter="url(#hub-shadow)"><circle cx="800" cy="450" r="126" fill="#10b981" opacity="0.08"></circle><circle cx="800" cy="450" r="98" fill="#131b24" stroke="#1e2d3d" stroke-width="2.5"></circle><circle cx="800" cy="450" r="80" fill="#1a2332" stroke="#10b981" stroke-opacity="0.30"></circle><svg xmlns="http://www.w3.org/2000/svg" width="116" height="116" viewBox="0 0 24 24" fill="none" stroke="#10b981" stroke-width="1.45" stroke-linecap="round" stroke-linejoin="round" class="lucide lucide-gem" aria-hidden="true" x="742" y="392"><path d="M10.5 3 8 9l4 13 4-13-2.5-6"></path><path d="M17 3a2 2 0 0 1 1.6.8l3 4a2 2 0 0 1 .013 2.382l-7.99 10.986a2 2 0 0 1-3.247 0l-7.99-10.986A2 2 0 0 1 2.4 7.8l2.998-3.997A2 2 0 0 1 7 3z"></path><path d="M2 9h20"></path></svg></g><g><g><circle cx="718.4590711548913" cy="395.6393807699275" r="7" fill="#1a2332" stroke="#34d399" stroke-width="2.5"></circle><circle cx="718.4590711548913" cy="395.6393807699275" r="2.5" fill="#34d399"></circle></g></g><g><g><circle cx="702" cy="450" r="7" fill="#1a2332" stroke="#34d399" stroke-width="2.5"></circle><circle cx="702" cy="450" r="2.5" fill="#34d399"></circle></g></g><g><g><circle cx="718.4590711548913" cy="504.3606192300725" r="7" fill="#1a2332" stroke="#34d399" stroke-width="2.5"></circle><circle cx="718.4590711548913" cy="504.3606192300725" r="2.5" fill="#34d399"></circle></g></g><g><g><circle cx="881.5409288451087" cy="395.6393807699275" r="7" fill="#1a2332" stroke="#34d399" stroke-width="2.5"></circle><circle cx="881.5409288451087" cy="395.6393807699275" r="2.5" fill="#34d399"></circle></g></g><g><g><circle cx="898" cy="450" r="7" fill="#1a2332" stroke="#34d399" stroke-width="2.5"></circle><circle cx="898" cy="450" r="2.5" fill="#34d399"></circle></g></g><g><g><circle cx="881.5409288451087" cy="504.3606192300725" r="7" fill="#1a2332" stroke="#34d399" stroke-width="2.5"></circle><circle cx="881.5409288451087" cy="504.3606192300725" r="2.5" fill="#34d399"></circle></g></g></svg>
